# xmcd
#
# Track frame offsets: 
#        150
#        13918
#        25820
#        36874
#        47029
#        58666
#        69792
#        81388
#        93118
#        104851
#        114732
#        123833
#        136421
#        148072
#        161690
#        171841
#        180567
#        190271
#        202147
#        214392
#
# Disc length: 3037 seconds
#
# Revision: 0
# Processed by: cddbd v1.5.2PL0 Copyright (c) Steve Scherf et al.
# Submitted via: ExactAudioCopy v1.0b3
#
DISCID=2b0bdb14
DTITLE=Various Artist - Country and Western Greatest Love-Songs - 200 O
DTITLE=riginal Recordings [CD 2,10)
DYEAR=1960
DGENRE=Country
TTITLE0=Marion Worth - I Think I Know
TTITLE1=Hank Snow - Tangled Mind
TTITLE2=Sonny James - For Rent (One Empty Heart)
TTITLE3=Johnny Cash - Goodbye Little Darlin'
TTITLE4=Don Gibson - Sweet Dreams
TTITLE5=Margie Singleton - Eyes Of Love
TTITLE6=Marvin Rainwater - Gonna Find Me A Bluebird
TTITLE7=Bill Anderson - The Tip Of My Fingers
TTITLE8=George Jones - The Window Up Above
TTITLE9=Jim Reeves - I'm Beginning To Forget You
TTITLE10=Merle Kilgore - Dear Mama
TTITLE11=Hank Williams - I'm So Lonesome I Could Cry
TTITLE12=Kitty Wells - Left To Right
TTITLE13=Everly Brothers - Rocking 'Alone In An Old Rocking Chair
TTITLE14=Ernie Ashworth - You Can't Pick A Rose In December
TTITLE15=Johnny Cash - Second Honeymoon
TTITLE16=Marty Robbins - Call Me Up
TTITLE17=The Browns - Scarlet Ribbons
TTITLE18=Roy Drusky - Another
TTITLE19=Hank Snow - I Don't Hurry Anymore
EXTD=
EXTT0=
EXTT1=
EXTT2=
EXTT3=
EXTT4=
EXTT5=
EXTT6=
EXTT7=
EXTT8=
EXTT9=
EXTT10=
EXTT11=
EXTT12=
EXTT13=
EXTT14=
EXTT15=
EXTT16=
EXTT17=
EXTT18=
EXTT19=
PLAYORDER=
